<svg width="17" height="18" viewBox="0 0 17 18" fill="none" xmlns="http://www.w3.org/2000/svg">
<g id="&#240;&#159;&#166;&#134; icon &#34;logout&#34;">
<g id="Group">
<path id="Vector" d="M12.5853 0H10.3738C7.65186 0 5.95068 1.70118 5.95068 4.42307V7.86796H11.2669C11.6156 7.86796 11.9048 8.15716 11.9048 8.5059C11.9048 8.85464 11.6156 9.14384 11.2669 9.14384H5.95068V12.5887C5.95068 15.3106 7.65186 17.0118 10.3738 17.0118H12.5768C15.2987 17.0118 16.9998 15.3106 16.9998 12.5887V4.42307C17.0084 1.70118 15.3072 0 12.5853 0Z" fill="white"/>
<path id="Vector_2" d="M2.17538 7.86779L3.93611 6.10711C4.06369 5.97952 4.12323 5.81791 4.12323 5.65629C4.12323 5.49468 4.06369 5.32456 3.93611 5.20548C3.68943 4.95881 3.28115 4.95881 3.03448 5.20548L0.185003 8.05492C-0.0616678 8.30159 -0.0616678 8.70988 0.185003 8.95655L3.03448 11.806C3.28115 12.0527 3.68943 12.0527 3.93611 11.806C4.18278 11.5594 4.18278 11.1511 3.93611 10.9044L2.17538 9.14368H5.952V7.86779H2.17538Z" fill="white"/>
</g>
</g>
</svg>
