<svg width="18" height="17" viewBox="0 0 18 17" fill="none" xmlns="http://www.w3.org/2000/svg">
<g id="&#240;&#159;&#166;&#134; icon &#34;key&#34;">
<path id="Vector" d="M15.1272 1.88105C12.6106 -0.627017 8.52965 -0.627017 6.03007 1.88105C4.27017 3.62395 3.74305 6.13202 4.4232 8.34251L0.427297 12.3384C0.146733 12.6275 -0.0488115 13.1971 0.010702 13.6052L0.26576 15.4586C0.359281 16.0708 0.92891 16.6489 1.54105 16.7339L3.39447 16.989C3.80256 17.0485 4.37219 16.8614 4.66126 16.5639L5.35842 15.8667C5.52845 15.7052 5.52845 15.4331 5.35842 15.2631L3.70904 13.6137C3.46249 13.3672 3.46249 12.9591 3.70904 12.7125C3.9556 12.4659 4.36369 12.4659 4.61025 12.7125L6.26812 14.3704C6.42966 14.5319 6.70172 14.5319 6.86327 14.3704L8.66568 12.5765C10.8677 13.2651 13.3758 12.7295 15.1272 10.9866C17.6352 8.47854 17.6352 4.38912 15.1272 1.88105ZM10.6296 8.49555C9.45636 8.49555 8.50415 7.54333 8.50415 6.37007C8.50415 5.1968 9.45636 4.24459 10.6296 4.24459C11.8029 4.24459 12.7551 5.1968 12.7551 6.37007C12.7551 7.54333 11.8029 8.49555 10.6296 8.49555Z" fill="#130421"/>
</g>
</svg>
