<svg width="21" height="21" viewBox="0 0 21 21" fill="none" xmlns="http://www.w3.org/2000/svg">
<g id="&#240;&#159;&#166;&#134; icon &#34;profile circle&#34;">
<g id="Group">
<path id="Vector" d="M21 10.5C21 4.7145 16.2855 0 10.5 0C4.7145 0 0 4.7145 0 10.5C0 13.545 1.3125 16.2855 3.3915 18.207C3.3915 18.2175 3.3915 18.2175 3.381 18.228C3.486 18.333 3.612 18.417 3.717 18.5115C3.78 18.564 3.8325 18.6165 3.8955 18.6585C4.0845 18.816 4.2945 18.963 4.494 19.11C4.5675 19.1625 4.6305 19.2045 4.704 19.257C4.9035 19.3935 5.1135 19.5195 5.334 19.635C5.4075 19.677 5.4915 19.7295 5.565 19.7715C5.775 19.887 5.9955 19.992 6.2265 20.0865C6.3105 20.1285 6.3945 20.1705 6.4785 20.202C6.7095 20.2965 6.9405 20.3805 7.1715 20.454C7.2555 20.4855 7.3395 20.517 7.4235 20.538C7.6755 20.6115 7.9275 20.6745 8.1795 20.7375C8.253 20.7585 8.3265 20.7795 8.4105 20.79C8.7045 20.853 8.9985 20.895 9.303 20.9265C9.345 20.9265 9.387 20.937 9.429 20.9475C9.786 20.979 10.143 21 10.5 21C10.857 21 11.214 20.979 11.5605 20.9475C11.6025 20.9475 11.6445 20.937 11.6865 20.9265C11.991 20.895 12.285 20.853 12.579 20.79C12.6525 20.7795 12.726 20.748 12.81 20.7375C13.062 20.6745 13.3245 20.622 13.566 20.538C13.65 20.5065 13.734 20.475 13.818 20.454C14.049 20.37 14.2905 20.2965 14.511 20.202C14.595 20.1705 14.679 20.1285 14.763 20.0865C14.9835 19.992 15.204 19.887 15.4245 19.7715C15.5085 19.7295 15.582 19.677 15.6555 19.635C15.8655 19.509 16.0755 19.3935 16.2855 19.257C16.359 19.215 16.422 19.1625 16.4955 19.11C16.7055 18.963 16.905 18.816 17.094 18.6585C17.157 18.606 17.2095 18.5535 17.2725 18.5115C17.388 18.417 17.5035 18.3225 17.6085 18.228C17.6085 18.2175 17.6085 18.2175 17.598 18.207C19.6875 16.2855 21 13.545 21 10.5ZM15.687 15.7185C12.8415 13.8075 8.1795 13.8075 5.313 15.7185C4.851 16.023 4.473 16.38 4.158 16.7685C2.562 15.1515 1.575 12.936 1.575 10.5C1.575 5.5755 5.5755 1.575 10.5 1.575C15.4245 1.575 19.425 5.5755 19.425 10.5C19.425 12.936 18.438 15.1515 16.842 16.7685C16.5375 16.38 16.149 16.023 15.687 15.7185Z"/>
<path id="Vector_2" d="M10.5 5.17618C8.3265 5.17618 6.5625 6.94018 6.5625 9.11369C6.5625 11.2452 8.232 12.9777 10.4475 13.0407H10.542H10.6155H10.6365C12.7575 12.9672 14.427 11.2452 14.4375 9.11369C14.4375 6.94018 12.6735 5.17618 10.5 5.17618Z"/>
</g>
</g>
</svg>
