<svg width="21" height="22" viewBox="0 0 21 22" fill="none" xmlns="http://www.w3.org/2000/svg">
<g id="&#240;&#159;&#166;&#134; icon &#34;money send&#34;">
<g id="Group">
<path id="Vector" d="M8.66211 8.53915C8.66211 9.10615 8.81961 9.19015 9.17661 9.31615L9.71211 9.50515V7.72015H9.39711C8.99811 7.72015 8.66211 8.08765 8.66211 8.53915Z"/>
<path id="Vector_2" d="M11.2876 13.496H11.6026C12.0121 13.496 12.3376 13.1285 12.3376 12.677C12.3376 12.11 12.1801 12.026 11.8231 11.9L11.2876 11.711V13.496Z"/>
<path id="Vector_3" d="M18.459 3.76167L16.3065 5.91417C16.149 6.07167 15.9495 6.14517 15.75 6.14517C15.5505 6.14517 15.351 6.07167 15.1935 5.91417C14.889 5.60967 14.889 5.10567 15.1935 4.80117L17.346 2.64867C15.498 1.07367 13.1145 0.107666 10.5 0.107666C4.704 0.107666 0 4.81167 0 10.6077C0 16.4037 4.704 21.1077 10.5 21.1077C16.296 21.1077 21 16.4037 21 10.6077C21 7.99317 20.034 5.60967 18.459 3.76167ZM12.3375 10.4187C13.0095 10.6602 13.9125 11.1432 13.9125 12.6867C13.9125 13.9992 12.873 15.0807 11.6025 15.0807H11.2875V15.3432C11.2875 15.7737 10.9305 16.1307 10.5 16.1307C10.0695 16.1307 9.7125 15.7737 9.7125 15.3432V15.0807H9.6285C8.232 15.0807 7.0875 13.9047 7.0875 12.4557C7.0875 12.0147 7.4445 11.6577 7.875 11.6577C8.3055 11.6577 8.6625 12.0147 8.6625 12.4452C8.6625 13.0227 9.093 13.4952 9.6285 13.4952H9.7125V11.1642L8.6625 10.7967C7.9905 10.5552 7.0875 10.0722 7.0875 8.52867C7.0875 7.21617 8.127 6.13467 9.3975 6.13467H9.7125V5.88267C9.7125 5.45217 10.0695 5.09517 10.5 5.09517C10.9305 5.09517 11.2875 5.45217 11.2875 5.88267V6.14517H11.3715C12.768 6.14517 13.9125 7.32117 13.9125 8.77017C13.9125 9.20067 13.5555 9.55767 13.125 9.55767C12.6945 9.55767 12.3375 9.20067 12.3375 8.77017C12.3375 8.19267 11.907 7.72017 11.3715 7.72017H11.2875V10.0512L12.3375 10.4187Z"/>
</g>
</g>
</svg>
