<svg width="15" height="17" viewBox="0 0 15 17" fill="none" xmlns="http://www.w3.org/2000/svg">
<g id="&#240;&#159;&#166;&#134; icon &#34;trash&#34;">
<g id="Group">
<path id="Vector" d="M14.4681 3.14447C13.2306 3.01806 11.9931 2.92325 10.748 2.85214V2.84424L10.5789 1.81716C10.4636 1.09029 10.2945 0 8.49594 0H6.48218C4.69129 0 4.52219 1.04289 4.39921 1.80925L4.23781 2.82054C3.523 2.86795 2.80819 2.91535 2.09338 2.98646L0.525405 3.14447C0.202588 3.17607 -0.0279963 3.4684 0.00274819 3.79232C0.0334927 4.11625 0.310193 4.35327 0.633011 4.32167L2.20098 4.16366C6.22854 3.75282 10.2868 3.91083 14.3605 4.32957H14.422C14.714 4.32957 14.9677 4.10045 14.9984 3.79232C15.0215 3.4684 14.7909 3.17607 14.4681 3.14447Z" fill="white"/>
<path id="Vector_2" d="M13.0537 5.44924C12.8693 5.25172 12.6156 5.14111 12.3543 5.14111H2.63907C2.37774 5.14111 2.11642 5.25172 1.93964 5.44924C1.76285 5.64676 1.66293 5.91538 1.67831 6.1919L2.15485 14.298C2.23939 15.4989 2.347 17 5.02946 17H9.96392C12.6464 17 12.7541 15.5068 12.8385 14.298L13.3151 6.1998C13.3304 5.91538 13.2305 5.64676 13.0537 5.44924ZM8.77257 13.0418H6.21309C5.89799 13.0418 5.63666 12.7732 5.63666 12.4492C5.63666 12.1253 5.89799 11.8567 6.21309 11.8567H8.77257C9.0877 11.8567 9.34903 12.1253 9.34903 12.4492C9.34903 12.7732 9.0877 13.0418 8.77257 13.0418ZM9.4182 9.88152H5.57517C5.26004 9.88152 4.99872 9.6129 4.99872 9.28897C4.99872 8.96504 5.26004 8.69642 5.57517 8.69642H9.4182C9.73333 8.69642 9.99466 8.96504 9.99466 9.28897C9.99466 9.6129 9.73333 9.88152 9.4182 9.88152Z" fill="white"/>
</g>
</g>
</svg>
