<svg width="17" height="17" viewBox="0 0 17 17" fill="none" xmlns="http://www.w3.org/2000/svg">
<g id="&#240;&#159;&#166;&#134; icon &#34;lock circle&#34;">
<g id="Group">
<path id="Vector" d="M8.4999 4.88757C6.8934 4.88757 6.5874 5.55907 6.5874 6.80007V7.32707H10.4124V6.80007C10.4124 5.55907 10.1064 4.88757 8.4999 4.88757Z" fill="black"/>
<path id="Vector_2" d="M8.49848 11.1337C9.01494 11.1337 9.43348 10.7151 9.43348 10.1987C9.43348 9.6823 9.01494 9.26367 8.49848 9.26367C7.9821 9.26367 7.56348 9.6823 7.56348 10.1987C7.56348 10.7151 7.9821 11.1337 8.49848 11.1337Z" fill="black"/>
<path id="Vector_3" d="M8.5 0C3.808 0 0 3.808 0 8.5C0 13.192 3.808 17 8.5 17C13.192 17 17 13.192 17 8.5C17 3.808 13.192 0 8.5 0ZM13.073 10.625C13.073 12.495 12.495 13.073 10.625 13.073H6.375C4.505 13.073 3.927 12.495 3.927 10.625V9.775C3.927 8.3215 4.2755 7.65 5.3125 7.4205V6.8C5.3125 6.0095 5.3125 3.6125 8.5 3.6125C11.6875 3.6125 11.6875 6.0095 11.6875 6.8V7.4205C12.7245 7.65 13.073 8.3215 13.073 9.775V10.625Z" fill="black"/>
</g>
</g>
</svg>
