<svg width="17" height="17" viewBox="0 0 17 17" fill="none" xmlns="http://www.w3.org/2000/svg">
<g id="&#240;&#159;&#166;&#134; icon &#34;chrome&#34;">
<g id="Group">
<path id="Vector" d="M8.34055 4.16515C10.7716 3.63813 13.2367 3.56162 15.6763 3.96114C14.1718 1.58106 11.5197 0 8.49356 0C5.84999 0 3.48691 1.20704 1.92285 3.10261C2.29686 4.20765 2.77288 5.26168 3.3424 6.26472C3.66541 6.84274 4.48994 6.81724 4.82145 6.24772C5.54398 5.03218 6.8445 4.21615 8.34055 4.16515Z"/>
<path id="Vector_2" d="M4.85554 10.8136C3.15548 8.99451 1.82944 6.92044 0.919906 4.62537C-0.355139 7.14145 -0.346638 10.2271 1.20892 12.8196C2.56896 15.0892 4.81304 16.5003 7.24411 16.8658C8.00064 15.9733 8.66366 15.0212 9.23318 14.0267C9.56469 13.4487 9.11418 12.7601 8.45115 12.7601C7.0316 12.7686 5.66307 12.0716 4.85554 10.8136Z"/>
<path id="Vector_3" d="M5.57812 8.49877C5.57812 9.01729 5.70563 9.5018 5.96914 9.96082C6.48766 10.8533 7.44818 11.4144 8.48522 11.4144C9.52226 11.4144 10.4913 10.8533 11.0013 9.96082C11.2648 9.5018 11.4008 9.01729 11.4008 8.49877C11.4008 6.89221 10.0918 5.59164 8.48522 5.59164C6.88716 5.58314 5.57812 6.89221 5.57812 8.49877Z"/>
<path id="Vector_4" d="M16.4332 5.45661C15.2686 5.2101 14.0871 5.0741 12.914 5.0571C12.2425 5.0486 11.86 5.77962 12.1915 6.36614C12.5315 6.96965 12.727 7.66668 12.727 8.4062C12.727 9.12023 12.54 9.82575 12.1915 10.4548C11.3925 12.9029 10.2024 15.0789 8.62988 17C13.2625 16.9235 16.9942 13.1494 16.9942 8.49971C16.9942 7.42867 16.7987 6.40014 16.4332 5.45661Z"/>
</g>
</g>
</svg>
