<svg width="21" height="18" viewBox="0 0 21 18" fill="none" xmlns="http://www.w3.org/2000/svg">
<g id="&#240;&#159;&#166;&#134; icon &#34;book 1&#34;">
<g id="Group">
<path id="Vector" d="M20.1967 2.19004V14.1898C20.1967 15.1688 19.3994 16.067 18.4205 16.1881L18.1076 16.2285C16.4525 16.4505 14.1212 17.1368 12.244 17.924C11.588 18.1965 10.8613 17.702 10.8613 16.9854V2.94696C10.8613 2.57355 11.0733 2.23041 11.4063 2.04875C13.2532 1.0496 16.0488 0.161477 17.9462 0H18.0067C19.2178 0 20.1967 0.978957 20.1967 2.19004Z"/>
<path id="Vector_2" d="M8.80054 2.04875C6.95362 1.0496 4.15804 0.161477 2.26068 0H2.19004C0.978957 0 0 0.978957 0 2.19004V14.1898C0 15.1688 0.797295 16.067 1.77625 16.1881L2.08911 16.2285C3.74426 16.4505 6.07559 17.1368 7.95277 17.924C8.60879 18.1965 9.33544 17.702 9.33544 16.9854V2.94696C9.33544 2.56345 9.13359 2.23041 8.80054 2.04875ZM3.03779 5.10672H5.30857C5.72236 5.10672 6.0655 5.44986 6.0655 5.86365C6.0655 6.28753 5.72236 6.62058 5.30857 6.62058H3.03779C2.62401 6.62058 2.28087 6.28753 2.28087 5.86365C2.28087 5.44986 2.62401 5.10672 3.03779 5.10672ZM6.0655 9.64829H3.03779C2.62401 9.64829 2.28087 9.31524 2.28087 8.89136C2.28087 8.47758 2.62401 8.13444 3.03779 8.13444H6.0655C6.47928 8.13444 6.82242 8.47758 6.82242 8.89136C6.82242 9.31524 6.47928 9.64829 6.0655 9.64829Z"/>
</g>
</g>
</svg>
