<svg xmlns="http://www.w3.org/2000/svg" width="18" height="17" viewBox="0 0 18 17" fill="none">
  <path d="M12.2306 0.357095L4.09938 3.0585C-1.36646 4.88644 -1.36646 7.86702 4.09938 9.68596L6.51263 10.4874L7.31401 12.9006C9.13295 18.3665 12.1225 18.3665 13.9414 12.9006L16.6518 4.77839C17.8585 1.1315 15.8774 -0.858535 12.2306 0.357095ZM12.5187 5.20161L9.09693 8.64142C8.96186 8.77649 8.79077 8.83952 8.61968 8.83952C8.4486 8.83952 8.27751 8.77649 8.14244 8.64142C7.8813 8.38028 7.8813 7.94806 8.14244 7.68692L11.5642 4.24711C11.8253 3.98598 12.2576 3.98598 12.5187 4.24711C12.7798 4.50825 12.7798 4.94047 12.5187 5.20161Z" fill="white"/>
</svg>