<svg width="21" height="21" viewBox="0 0 21 21" fill="none" xmlns="http://www.w3.org/2000/svg">
<g id="&#240;&#159;&#166;&#134; icon &#34;copy&#34;">
<g id="Group">
<path id="Vector" d="M14.3 11.355V15.345C14.3 18.67 12.97 20 9.645 20H5.655C2.33 20 1 18.67 1 15.345V11.355C1 8.03001 2.33 6.70001 5.655 6.70001H9.645C12.97 6.70001 14.3 8.03001 14.3 11.355Z" stroke="white" stroke-linecap="round" stroke-linejoin="round"/>
<path id="Vector_2" d="M19.9997 5.655V9.645C19.9997 12.97 18.6697 14.3 15.3447 14.3H14.2997V11.355C14.2997 8.03 12.9697 6.7 9.64471 6.7H6.69971V5.655C6.69971 2.33 8.02971 1 11.3547 1H15.3447C18.6697 1 19.9997 2.33 19.9997 5.655Z" stroke="white" stroke-linecap="round" stroke-linejoin="round"/>
</g>
</g>
</svg>
