<svg width="17" height="18" viewBox="0 0 17 18" fill="none" xmlns="http://www.w3.org/2000/svg">
<g id="&#240;&#159;&#166;&#134; icon &#34;verify&#34;">
<path id="Vector" d="M16.6228 7.43158L15.4667 6.08849C15.2457 5.83348 15.0672 5.35745 15.0672 5.01743V3.57234C15.0672 2.67129 14.3276 1.93174 13.4266 1.93174H11.9815C11.65 1.93174 11.1655 1.75323 10.9104 1.53222L9.56736 0.376148C8.98082 -0.125383 8.02027 -0.125383 7.42523 0.376148L6.09062 1.54072C5.8356 1.75323 5.35107 1.93174 5.01955 1.93174H3.54896C2.64791 1.93174 1.90836 2.67129 1.90836 3.57234V5.02593C1.90836 5.35745 1.72985 5.83348 1.51734 6.08849L0.369772 7.44008C-0.123257 8.02662 -0.123257 8.97867 0.369772 9.56521L1.51734 10.9168C1.72985 11.1718 1.90836 11.6478 1.90836 11.9794V13.4329C1.90836 14.334 2.64791 15.0735 3.54896 15.0735H5.01955C5.35107 15.0735 5.8356 15.2521 6.09062 15.4731L7.43373 16.6291C8.02027 17.1307 8.98082 17.1307 9.57586 16.6291L10.9189 15.4731C11.174 15.2521 11.65 15.0735 11.99 15.0735H13.4351C14.3361 15.0735 15.0757 14.334 15.0757 13.4329V11.9879C15.0757 11.6563 15.2542 11.1718 15.4752 10.9168L16.6313 9.57371C17.1243 8.98717 17.1243 8.01812 16.6228 7.43158ZM12.0325 6.89605L7.92676 11.0018C7.80775 11.1208 7.64624 11.1888 7.47623 11.1888C7.30622 11.1888 7.14471 11.1208 7.02571 11.0018L4.96855 8.94467C4.72203 8.69816 4.72203 8.29013 4.96855 8.04362C5.21506 7.7971 5.62309 7.7971 5.8696 8.04362L7.47623 9.65021L11.1315 5.99499C11.378 5.74847 11.786 5.74847 12.0325 5.99499C12.279 6.2415 12.279 6.64952 12.0325 6.89605Z" fill="#654DC1"/>
</g>
</svg>
